<svg width="18" height="18" viewBox="0 0 18 18" fill="none" xmlns="http://www.w3.org/2000/svg">
<path fill-rule="evenodd" clip-rule="evenodd" d="M11.965 11.2549H12.755L17.745 16.2549L16.255 17.7449L11.255 12.7549V11.9649L10.985 11.6849C9.845 12.6649 8.365 13.2549 6.755 13.2549C3.165 13.2549 0.255005 10.3449 0.255005 6.75488C0.255005 3.16488 3.165 0.254883 6.755 0.254883C10.345 0.254883 13.255 3.16488 13.255 6.75488C13.255 8.36488 12.665 9.84488 11.685 10.9849L11.965 11.2549ZM2.255 6.75488C2.255 9.24488 4.26501 11.2549 6.755 11.2549C9.245 11.2549 11.255 9.24488 11.255 6.75488C11.255 4.26488 9.245 2.25488 6.755 2.25488C4.26501 2.25488 2.255 4.26488 2.255 6.75488Z" fill="#4B4B4B"/>
</svg>
